<mxfile host="app.diagrams.net" modified="2024-06-28T05:38:41.513Z" agent="Mozilla/5.0 (Windows NT 10.0; Win64; x64) AppleWebKit/537.36 (KHTML, like Gecko) Chrome/126.0.0.0 Safari/537.36" version="24.6.4" etag="uk4-kh9zGoOTSriHUOqc" type="github">
  <diagram name="페이지-1" id="AC-dUKgvoR48rX43May5">
    <mxGraphModel>
      <root>
        <mxCell id="0" />
        <mxCell id="1" parent="0" />
      </root>
    </mxGraphModel>
  </diagram>
</mxfile>
